<svg width="64" height="64" viewBox="0 0 64 64" fill="none" xmlns="http://www.w3.org/2000/svg">
<defs><filter id="g" x="-50%" y="-50%" width="200%" height="200%"><feGaussianBlur stdDeviation="2.5" result="b"/><feMerge><feMergeNode in="b"/><feMergeNode in="SourceGraphic"/></feMerge></filter></defs>
<circle cx="32" cy="32" r="29" fill="#061A3A" stroke="#008CFF" stroke-width="2"/>
<circle cx="32" cy="32" r="23" stroke="#00D9FF" stroke-opacity=".25"/>
<g stroke="#20D8FF" stroke-width="3" stroke-linecap="round" stroke-linejoin="round" filter="url(#g)">
<circle cx="32" cy="25" r="6"/><path d="M21 44c0-7 4.9-11 11-11s11 4 11 11"/>
<circle cx="18.5" cy="28" r="4"/><path d="M11 42c0-5.4 3.2-8.5 7.5-8.5 2 0 3.5.5 4.8 1.5"/>
<circle cx="45.5" cy="28" r="4"/><path d="M53 42c0-5.4-3.2-8.5-7.5-8.5-2 0-3.5.5-4.8 1.5"/>
</g></svg>
